PathFileType	4	(X/Y/Z)	C:\Users\Basilio\Documents\Thesis Gigler\squatting_fais\c3dfiles\038\SLS_front_pre4\markers_experimental.trc
DataRate	CameraRate	NumFrames	NumMarkers	Units	OrigDataRate	OrigDataStartFrame	OrigNumFrames
200.000000	200.000000	4	61	mm	200.000000	1232	1408
Frame#	Time	FHD			LBHD			RBHD			C7			T10			CLAV			LSHO			LUUPA			LMUPA			LDUPA			LLEP			LMEP			LRAD			LUL			LRFIN			RSHO			RUPA1			RMUPA			RDUPA			RLEP			RMEP			RRAD			RUL			RUFIN			LASI			RASI			USACR			LSACR			RSACR			LTHI1			LTHI2			LTHI3			LTHI4			LLFC			LMFC			LTIB1			LTIB2			LTIB3			LTIB4			LLMAL			LMMAL			LHEE			LMT1			LMT2			LMT5			RTHI			RTHI2			RTHI3			RTHI4			RLFC			RMFC			RTIB1			RTIB2			RTIB3			RTIB4			RLMAL			RMMAL			RHEE			RMT1			RMT2			RMT5			
		X1	Y1	Z1	X2	Y2	Z2	X3	Y3	Z3	X4	Y4	Z4	X5	Y5	Z5	X6	Y6	Z6	X7	Y7	Z7	X8	Y8	Z8	X9	Y9	Z9	X10	Y10	Z10	X11	Y11	Z11	X12	Y12	Z12	X13	Y13	Z13	X14	Y14	Z14	X15	Y15	Z15	X16	Y16	Z16	X17	Y17	Z17	X18	Y18	Z18	X19	Y19	Z19	X20	Y20	Z20	X21	Y21	Z21	X22	Y22	Z22	X23	Y23	Z23	X24	Y24	Z24	X25	Y25	Z25	X26	Y26	Z26	X27	Y27	Z27	X28	Y28	Z28	X29	Y29	Z29	X30	Y30	Z30	X31	Y31	Z31	X32	Y32	Z32	X33	Y33	Z33	X34	Y34	Z34	X35	Y35	Z35	X36	Y36	Z36	X37	Y37	Z37	X38	Y38	Z38	X39	Y39	Z39	X40	Y40	Z40	X41	Y41	Z41	X42	Y42	Z42	X43	Y43	Z43	X44	Y44	Z44	X45	Y45	Z45	X46	Y46	Z46	X47	Y47	Z47	X48	Y48	Z48	X49	Y49	Z49	X50	Y50	Z50	X51	Y51	Z51	X52	Y52	Z52	X53	Y53	Z53	X54	Y54	Z54	X55	Y55	Z55	X56	Y56	Z56	X57	Y57	Z57	X58	Y58	Z58	X59	Y59	Z59	X60	Y60	Z60	X61	Y61	Z61	

1233	6.16	-224.877426147461	1777.423828125	-1042.103393554688	-378.2465515136719	1721.224365234375	-1104.972045898438	-370.3631591796876	1705.505126953125	-960.4128417968752	-418.0283813476564	1538.857788085938	-1032.069702148438	-401.5172119140626	1258.740112304688	-1013.982360839844	-272.4664611816407	1525.21728515625	-1041.676635742188	-333.6229553222657	1555.727783203125	-1186.017822265625	-171.3109130859375	1494.631713867188	-1319.306762695313	-142.7037658691407	1527.167602539063	-1292.38916015625	-102.5647735595703	1501.4912109375	-1328.02685546875	-40.17149353027344	1503.265502929688	-1329.56005859375	-31.40807723999024	1426.989013671875	-1310.617797851563	241.7113952636719	1484.724609375	-1218.428100585938	254.6611022949219	1506.343383789063	-1286.105224609375	313.2965087890626	1513.306030273438	-1192.050048828125	-319.6737060546876	1554.520874023438	-896.3587036132815	-167.82958984375	1517.941528320313	-769.330261230469	-130.1292114257813	1526.1796875	-799.8845214843752	-101.3362884521485	1511.1669921875	-748.6121826171876	-28.63406562805176	1505.59228515625	-734.3826904296876	-25.65132904052735	1426.31396484375	-748.2084350585939	246.4507293701172	1485.516845703125	-819.5527343750002	258.1834106445313	1504.399658203125	-752.1482543945314	328.3883666992188	1516.61181640625	-827.741149902344	-229.7034301757813	1063.760986328125	-1113.329711914063	-249.0449829101563	1090.95947265625	-862.553405761719	-406.5716857910157	1124.512939453125	-1004.016296386719	-418.5306091308595	1093.873657226563	-1030.360229492188	-420.6411743164064	1097.554321289063	-973.9065551757815	-266.8813171386719	742.6004028320314	-1158.717163085938	-236.3388366699219	663.3527221679689	-1149.597045898438	-190.681869506836	668.9340209960939	-1127.612670898438	-264.4749145507813	614.7974243164064	-1130.277221679688	-259.9272460937501	553.9624023437501	-1121.641723632813	-249.5886993408204	546.9285278320314	-1002.980834960938	-240.9571838378907	364.6905517578126	-1049.635864257813	-288.2260437011719	326.0403442382813	-1114.026000976563	-253.1174621582032	317.6741027832032	-1085.535400390625	-272.9469604492188	241.3482208251954	-1056.1806640625	-367.6314697265626	113.7863540649414	-1074.331909179688	-328.3795471191407	128.160140991211	-1004.358276367188	-416.6236572265626	94.16381072998048	-1017.748046875	-216.5766906738282	46.95861053466798	-1018.665771484375	-210.2890930175782	45.39872741699219	-1069.524536132813	-257.4780578613282	32.72160339355469	-1114.013916015625	-305.8156433105469	817.0504150390627	-800.204040527344	-272.2396545410157	758.8562011718751	-793.3239746093752	-238.6990203857422	758.8873901367189	-797.2044677734377	-303.1147766113282	680.6569213867189	-810.463806152344	-292.4225769042969	544.5167846679689	-813.0524902343752	-299.1955261230469	540.3982543945314	-933.9188232421877	-253.9725341796876	366.6787719726563	-835.424255371094	-329.4968872070313	290.3381652832032	-791.373718261719	-284.3514099121094	291.5387268066407	-804.0756835937502	-277.2864685058594	239.2966918945313	-832.4547119140627	-341.4230651855469	120.8686676025391	-795.1336059570315	-318.0472412109376	125.9077453613282	-876.0577392578127	-405.3780517578126	85.42041015625001	-852.2336425781252	-191.7411041259766	50.70599746704103	-861.2634277343752	-189.4161224365235	50.06731033325197	-814.8931274414065	-231.6628112792969	35.11882781982423	-767.2532348632814	
1234	6.165	-224.7669372558594	1777.24072265625	-1041.282104492188	-378.0765686035157	1721.444458007813	-1104.146728515625	-370.2835998535157	1705.565673828125	-959.6362915039065	-417.8780822753907	1538.935913085938	-1031.37890625	-401.5514221191407	1258.708740234375	-1013.330505371094	-272.4627685546876	1525.282592773438	-1040.897338867188	-333.5167846679688	1555.849243164063	-1185.250854492188	-171.3038787841797	1494.675170898438	-1318.661743164063	-142.7432556152344	1527.356689453125	-1291.60888671875	-102.4481430053711	1501.541259765625	-1327.399536132813	-40.19845962524415	1503.212524414063	-1328.920043945313	-31.39888954162598	1427.079223632813	-1309.887084960938	241.4915313720704	1484.477294921875	-1217.64013671875	254.8109893798829	1506.2265625	-1285.261108398438	313.4335632324219	1513.056396484375	-1191.24755859375	-319.4999389648438	1554.495727539063	-895.5854492187502	-167.7308807373047	1517.884765625	-768.7043457031252	-129.6785736083985	1526.202026367188	-799.2009277343752	-101.0672225952149	1511.16162109375	-747.9972534179689	-28.51405334472657	1505.267456054688	-733.7302856445314	-25.44606399536134	1426.153442382813	-747.5328979492189	246.5330352783204	1485.179809570313	-818.978210449219	258.2616577148438	1503.98828125	-751.6253051757814	328.4393310546876	1516.204833984375	-827.2099609375002	-229.4968872070313	1063.9267578125	-1112.822998046875	-248.8565063476563	1090.959838867188	-862.0586547851565	-406.2799682617189	1124.4912109375	-1003.485168457031	-418.3133544921876	1093.8974609375	-1029.835571289063	-420.2350158691407	1097.576293945313	-973.3481445312502	-266.9101867675782	742.6720581054689	-1158.323486328125	-236.4216918945313	663.4849243164064	-1149.213500976563	-190.7301177978516	669.0622558593751	-1127.3818359375	-264.5239562988282	614.8936157226564	-1129.936767578125	-259.9960937500001	554.0902099609376	-1121.325805664063	-249.5033111572266	546.9224243164064	-1002.575744628906	-240.9149627685547	364.8612365722657	-1049.456909179688	-288.2113342285157	326.0847473144532	-1113.809204101563	-253.2418365478516	317.6833801269532	-1085.324462890625	-272.8968811035157	241.4645080566407	-1056.110717773438	-367.6405029296876	113.7835159301758	-1074.372436523438	-328.3868713378907	128.1787261962891	-1004.277221679688	-416.634735107422	94.13475799560548	-1017.740234375	-216.5641632080079	46.9944076538086	-1018.675231933594	-210.3001708984376	45.38237762451173	-1069.536987304688	-257.4700012207032	32.69710540771485	-1113.956665039063	-305.8767700195313	817.0971679687502	-800.0054321289065	-272.3418273925782	758.8480834960939	-792.985778808594	-238.7034149169922	758.8090820312501	-796.7086181640627	-303.2029113769532	680.7337646484376	-810.312194824219	-292.5801391601563	544.4693603515626	-812.713317871094	-298.9282836914063	540.4500732421876	-933.6240844726565	-254.1073608398438	366.7203063964844	-835.025573730469	-329.6125793457032	290.2542419433594	-791.1550292968752	-284.3772888183594	291.5464477539063	-803.907165527344	-277.2718505859376	239.2574157714844	-832.2998046875002	-341.4467163085938	120.7825393676758	-795.0953369140627	-318.0226745605469	125.9569549560547	-875.9724731445315	-405.3753356933595	85.43727111816408	-852.2105712890627	-191.7495880126953	50.66443252563478	-861.1779785156252	-189.39599609375	50.05869293212892	-814.8200683593752	-231.6711425781251	35.08147430419923	-767.2062377929689	
1235	6.17	-224.6344909667969	1777.353393554688	-1040.629516601563	-377.9426879882813	1721.560546875	-1103.456909179688	-370.1822509765626	1705.515258789063	-958.7713012695315	-417.6696777343751	1539.004638671875	-1030.807495117188	-401.3831787109376	1258.832641601563	-1012.67529296875	-272.5618896484376	1525.321166992188	-1040.126708984375	-333.6875915527344	1555.984252929688	-1184.585205078125	-171.1630554199219	1494.73681640625	-1317.97509765625	-142.6784973144532	1527.44873046875	-1290.831176757813	-102.3571166992188	1501.630737304688	-1326.650024414063	-39.64897155761719	1502.95556640625	-1328.15869140625	-31.35173225402833	1427.148315429688	-1309.2353515625	241.993392944336	1484.306518554688	-1216.541015625	254.8410644531251	1506.234008789063	-1284.442993164063	313.7105712890626	1512.89599609375	-1190.522827148438	-319.4036254882813	1554.453247070313	-894.9506835937502	-167.6294097900391	1517.74072265625	-768.2230224609377	-129.6320495605469	1526.041259765625	-798.4274902343752	-101.1312789916992	1511.12939453125	-747.3272094726564	-28.40343475341798	1505.025390625	-733.0457763671876	-25.63582611083985	1425.631958007813	-747.2887573242189	246.677963256836	1484.8681640625	-818.472839355469	258.3874511718751	1503.661010742188	-751.2741088867189	328.5720520019532	1515.951171875	-826.7644042968752	-229.3895263671876	1064.112548828125	-1112.353881835938	-248.6978759765626	1090.953735351563	-861.444030761719	-406.0494384765626	1124.626098632813	-1002.934020996094	-418.1407470703126	1093.978271484375	-1029.287109375	-420.0335388183595	1097.598754882813	-972.8626098632815	-266.9217529296876	742.7903442382814	-1157.886962890625	-236.4936981201172	663.6535034179689	-1148.8603515625	-190.7223663330078	669.1163330078126	-1127.102905273438	-264.6018981933594	615.0206298828126	-1129.604248046875	-260.0397033691407	554.1936645507814	-1121.011474609375	-249.5727996826172	547.0259399414064	-1002.231689453125	-240.9705963134766	364.8369750976563	-1049.312744140625	-288.2305603027344	326.2319641113282	-1113.635620117188	-253.331527709961	317.7756958007813	-1085.092529296875	-272.8876342773438	241.5708770751954	-1055.979248046875	-367.6193237304688	113.876220703125	-1074.378051757813	-328.3247985839844	128.2038726806641	-1004.2890625	-416.6284484863282	94.1778030395508	-1017.6865234375	-216.5555877685547	46.97175979614259	-1018.6337890625	-210.2933959960938	45.43242263793946	-1069.504638671875	-257.4973144531251	32.69406509399415	-1113.949951171875	-305.8382873535157	817.121520996094	-799.7505493164065	-272.3295593261719	758.8435058593751	-792.6365966796877	-238.6287841796876	758.9275512695314	-796.2092895507815	-303.1092834472657	680.7471923828126	-810.121765136719	-292.6061096191407	544.4321899414064	-812.3150024414065	-298.7111511230469	540.4304809570314	-933.2998046875002	-254.1121673583985	366.7625732421876	-834.6401977539065	-329.7309875488282	290.2403869628907	-790.9675903320315	-284.4040832519532	291.5787353515626	-803.6912231445315	-277.2615051269532	239.1786499023438	-832.011169433594	-341.4762268066407	120.6168289184571	-795.0213623046877	-318.0497131347657	125.9998931884766	-875.8612060546877	-405.3322143554689	85.42427062988283	-852.198181152344	-191.7164154052735	50.67414855957033	-861.0949707031252	-189.4469451904297	50.01465225219728	-814.7160644531252	-231.6586608886719	35.02879333496094	-767.1093139648439	
1236	6.175	-224.626205444336	1777.679443359375	-1039.934326171875	-377.8828430175782	1721.690063476563	-1102.683959960938	-370.0734863281251	1705.629760742188	-958.039489746094	-417.4895019531251	1538.98828125	-1030.100952148438	-401.1072692871095	1258.933471679688	-1012.058776855469	-272.5668640136719	1525.334106445313	-1039.4287109375	-333.5640563964844	1556.064575195313	-1183.906005859375	-171.1147918701172	1494.87353515625	-1317.18359375	-142.4327239990235	1527.448852539063	-1290.118530273438	-102.1974716186524	1501.613037109375	-1325.89794921875	-39.45112609863282	1502.98046875	-1327.337158203125	-31.29012680053712	1427.256591796875	-1308.32080078125	242.3931427001954	1484.154907226563	-1215.778564453125	254.9663696289063	1506.056518554688	-1283.62109375	313.8874816894532	1512.777587890625	-1189.594604492188	-319.3093872070313	1554.556274414063	-894.3885498046877	-167.4149322509766	1517.579711914063	-767.4591064453126	-129.5164184570313	1525.96484375	-797.786560058594	-101.0584335327149	1510.90087890625	-746.7476196289064	-28.28141403198243	1504.867431640625	-732.4639892578126	-25.52352142333985	1425.393920898438	-746.8530883789064	246.8459014892579	1484.82421875	-818.055114746094	258.4678649902344	1503.362548828125	-750.8915405273439	328.6327209472657	1515.658935546875	-826.3992309570315	-229.1637268066407	1064.344970703125	-1111.848999023438	-248.3525848388672	1091.010131835938	-860.8538818359377	-405.8050842285157	1124.668212890625	-1002.297241210938	-417.8967285156251	1094.019897460938	-1028.639892578125	-419.7836303710939	1097.64111328125	-972.2736816406252	-266.9895019531251	742.9929809570314	-1157.50390625	-236.5483551025391	663.8161621093751	-1148.553466796875	-190.7882690429688	669.1898803710939	-1126.8359375	-264.7535400390626	615.1707153320314	-1129.159301757813	-260.1033325195313	554.3593750000001	-1120.699096679688	-249.6149291992188	546.8939208984376	-1001.816284179688	-241.0300598144532	364.9289855957032	-1049.088623046875	-288.4394226074219	326.3568420410157	-1113.469848632813	-253.4267883300782	317.7433166503907	-1084.87451171875	-272.9573059082032	241.6559143066407	-1055.960327148438	-367.6736450195313	113.9122161865235	-1074.301513671875	-328.3348388671876	128.198471069336	-1004.27001953125	-416.619354248047	94.17041015625001	-1017.709716796875	-216.5039215087891	46.93939208984376	-1018.641845703125	-210.2866668701172	45.41937255859376	-1069.4951171875	-257.5884704589844	32.67074584960938	-1113.820190429688	-305.6215820312501	817.1287231445315	-799.4893798828127	-272.1084594726563	758.7224121093751	-792.2095947265627	-238.4767456054688	758.8540649414064	-795.7420043945315	-302.9421386718751	680.7402343750001	-809.8416748046877	-292.6453857421876	544.4607543945314	-811.922790527344	-298.4256896972657	540.4746093750001	-932.9859619140627	-254.0242919921876	366.7011413574219	-834.3063964843752	-329.7233581542969	290.1954956054688	-790.7424926757815	-284.3919372558594	291.5383911132813	-803.563903808594	-277.2742004394532	239.1655578613282	-831.7320556640627	-341.5097656250001	120.4772338867188	-794.9211425781252	-318.0615234375001	125.9891586303711	-875.775817871094	-405.319061279297	85.45536041259767	-852.1409301757815	-191.6554718017578	50.67987060546876	-861.0164794921877	-189.4878997802735	50.02230453491212	-814.6004638671877	-231.6942443847657	35.00938034057618	-767.0485839843751	
